# xmcd
#
# Track frame offsets:
#	150
#	16610
#	34648
#	52623
#	72770
#	91118
#	103235
#	116348
#	131140
#	146650
#	159265
#	174330
#	189970
#	200075
#
# Disc length: 2874 seconds
#
# Revision: 3
# Processed by: cddbd v1.5.1PL0 Copyright (c) Steve Scherf et al.
# Submitted via: audiograbber 1.83.01
#
DISCID=ab0b380e
DTITLE=Various Artist - Blue Piano Vol. 1
DYEAR=1900
DGENRE=
TTITLE0=Albert Ammons - Boogie Woogie Stomp
TTITLE1=Meade Lux Lewis - Chicago Flyer
TTITLE2=Pete Johnson - Holler Stomp
TTITLE3=Earl Hines - Reminiscing At The Blue Note
TTITLE4=James P. Johnson - Mule Walk Stomp
TTITLE5=Nat King Cole - How High Is The Moon
TTITLE6=Art Tatum - Willow Weep For Me
TTITLE7=Art Hodes - Back Room Blues
TTITLE8=Bud Powell - Parisian Thoroughfare
TTITLE9=Lennie Tristano - Yesterdays
TTITLE10=Thelonious Monk - April In Paris
TTITLE11=Wynton Kelly - Born To Be Blue
TTITLE12=Al Haig - Takin' A Chance On Love
TTITLE13=Horace Silver - Opus De Funk
EXTD=
EXTT0=
EXTT1=
EXTT2=
EXTT3=
EXTT4=
EXTT5=
EXTT6=
EXTT7=
EXTT8=
EXTT9=
EXTT10=
EXTT11=
EXTT12=
EXTT13=
PLAYORDER=
